<?xml version="1.0" encoding="UTF-8"?>
<svg style="clip-rule:evenodd;fill-rule:evenodd;stroke-linejoin:round;stroke-miterlimit:2" version="1.1" viewBox="0 0 16 16" xml:space="preserve" xmlns="http://www.w3.org/2000/svg">
    <g transform="matrix(.13068 0 0 .22259 -5.1544 -7.8848)">
        
            
                <path d="m54.947 60.987c-4.208 25.071 59.902 52.502 82.668 27.394 41.988-46.307-76.816-57.059-82.668-27.394z" style="fill-rule:nonzero;fill:#2c2255"/>
                <g transform="rotate(1.9469,184.04,-204.21)">
                    <path d="m91.919 82.539c-2.815 6.125 40.217 16.326 39.764 4.03-0.453-12.297-36.95-10.156-39.764-4.03z" style="fill-rule:nonzero;fill:#fff"/>
                </g>
                <g transform="rotate(2.2093,14.96,74.744)">
                    <path d="m64.721 58.011c1.478 3.166 9.196-3.858 35.306-2.41 28.25 1.567 29.768 8.218 31.801 4.289 1.884-3.64-12.339-8.886-31.334-9.74-18.995-0.855-37.29 4.613-35.773 7.861z" style="fill-rule:nonzero;fill:#fff"/>
                </g>
            
        
    </g>
</svg>
